<?xml version="1.0" standalone="no"?>
<!DOCTYPE svg PUBLIC "-//W3C//DTD SVG 20010904//EN"
 "http://www.w3.org/TR/2001/REC-SVG-20010904/DTD/svg10.dtd">
<svg version="1.0" xmlns="http://www.w3.org/2000/svg"
 width="299.000000pt" height="299.000000pt" viewBox="0 0 299.000000 299.000000"
 preserveAspectRatio="xMidYMid meet">

<g transform="translate(0.000000,299.000000) scale(0.100000,-0.100000)"
fill="#000000" stroke="none">
<path d="M1398 2864 c-29 -12 -122 -112 -405 -436 -203 -231 -376 -434 -385
-451 -21 -39 -23 -119 -4 -155 35 -66 116 -110 183 -97 75 14 65 4 510 514 58
67 106 112 130 123 160 73 318 -97 232 -250 -13 -24 -32 -58 -41 -75 -56 -101
16 -234 131 -245 80 -7 113 10 200 106 226 249 234 260 235 332 1 76 -23 108
-206 267 -95 81 -223 194 -286 250 -63 56 -129 109 -147 118 -41 19 -99 19
-147 -1z"/>
<path d="M2188 2004 c-34 -15 -218 -215 -501 -545 -78 -91 -138 -115 -218 -87
-53 18 -88 46 -110 91 -31 61 -23 126 26 206 48 78 53 144 17 203 -47 75 -151
105 -227 65 -50 -26 -291 -293 -320 -353 -20 -42 -19 -107 1 -151 20 -41 581
-537 634 -560 38 -16 98 -12 144 8 15 7 118 116 229 242 111 127 276 314 366
416 90 102 172 199 181 215 40 63 33 147 -17 207 -49 57 -129 74 -205 43z"/>
<path d="M206 403 c-38 -87 -75 -173 -82 -191 l-14 -32 43 0 c42 0 45 2 60 40
l15 40 84 0 83 0 17 -40 c15 -37 19 -40 57 -40 23 0 41 1 41 3 0 1 -36 86 -79
187 l-80 185 -38 3 -39 3 -68 -158z m129 -5 c9 -24 19 -49 22 -55 4 -9 -8 -13
-41 -13 -30 0 -46 4 -46 12 0 18 34 98 41 98 4 0 15 -19 24 -42z"/>
<path d="M605 548 c-36 -19 -55 -52 -55 -95 0 -59 29 -88 115 -116 58 -18 71
-26 73 -46 7 -47 -63 -56 -122 -16 l-37 25 -24 -27 c-28 -33 -22 -43 39 -72
50 -25 122 -27 172 -6 47 19 71 73 55 126 -14 47 -28 58 -108 84 -37 12 -71
28 -77 37 -25 41 54 64 113 33 30 -15 41 -9 65 33 20 34 -157 69 -209 40z"/>
<path d="M960 553 c-53 -19 -79 -80 -60 -138 13 -39 37 -55 122 -80 39 -11 59
-22 63 -36 16 -51 -52 -65 -122 -25 l-43 25 -21 -31 c-18 -25 -19 -32 -8 -40
94 -65 217 -63 263 4 22 31 20 90 -4 121 -11 14 -42 33 -68 42 -107 38 -103
36 -100 64 3 22 8 26 41 29 20 2 52 -4 69 -13 31 -15 33 -15 50 7 23 30 19 39
-23 60 -33 17 -125 23 -159 11z"/>
<path d="M1250 370 l0 -190 40 0 40 0 0 190 0 190 -40 0 -40 0 0 -190z"/>
<path d="M1427 553 c-4 -3 -7 -89 -7 -190 l0 -183 40 0 39 0 3 117 3 118 53
-102 c43 -85 56 -103 75 -103 18 0 31 18 74 103 l52 102 0 -117 1 -118 40 0
40 0 0 190 0 190 -54 0 -53 0 -50 -107 -50 -108 -51 108 -51 107 -49 0 c-27 0
-52 -3 -55 -7z"/>
<path d="M1940 369 l0 -191 114 4 c129 3 163 18 180 77 11 40 -12 96 -44 106
l-22 7 21 22 c31 33 35 75 12 112 -23 38 -77 54 -185 54 l-76 0 0 -191z m171
111 c11 -6 19 -21 19 -35 0 -29 -26 -45 -74 -45 -36 0 -36 0 -36 45 0 45 0 45
36 45 19 0 44 -5 55 -10z m27 -152 c7 -7 12 -21 12 -33 0 -33 -20 -45 -77 -45
l-53 0 0 45 0 45 53 0 c29 0 58 -5 65 -12z"/>
<path d="M2317 553 c-4 -3 -7 -89 -7 -190 l0 -183 125 0 125 0 0 35 0 34 -82
3 -83 3 -3 153 -3 152 -33 0 c-18 0 -36 -3 -39 -7z"/>
<path d="M2540 552 c0 -4 27 -54 60 -110 60 -103 60 -104 60 -183 l0 -79 45 0
45 0 0 79 c0 78 1 81 55 175 77 133 76 128 24 124 -41 -3 -44 -5 -79 -65 -19
-34 -38 -65 -42 -68 -3 -4 -25 25 -48 64 -40 69 -42 71 -80 71 -22 0 -40 -3
-40 -8z"/>
</g>
</svg>
