<?xml version="1.0" standalone="no"?>
<!DOCTYPE svg PUBLIC "-//W3C//DTD SVG 20010904//EN"
 "http://www.w3.org/TR/2001/REC-SVG-20010904/DTD/svg10.dtd">
<svg version="1.0" xmlns="http://www.w3.org/2000/svg"
 width="512.000000pt" height="512.000000pt" viewBox="0 0 512.000000 512.000000"
 preserveAspectRatio="xMidYMid meet">

<g transform="translate(0.000000,512.000000) scale(0.100000,-0.100000)"
fill="#000000" stroke="none">
<path d="M2335 5029 c-503 -48 -977 -239 -1375 -553 -102 -81 -331 -312 -411
-416 -402 -518 -593 -1151 -539 -1785 29 -333 114 -635 264 -935 244 -487 616
-867 1097 -1124 121 -63 296 -136 331 -136 38 0 111 42 130 75 9 17 126 377
259 800 179 568 242 783 243 821 0 63 -30 108 -107 158 -168 108 -271 267
-299 462 -36 249 88 502 308 632 105 62 198 87 324 87 81 0 122 -5 180 -23
424 -131 593 -626 336 -986 -44 -62 -104 -117 -207 -191 -65 -46 -83 -77 -83
-138 1 -39 61 -244 242 -821 133 -423 250 -783 260 -800 19 -33 92 -76 130
-76 56 0 348 136 502 235 685 437 1121 1154 1190 1960 47 558 -98 1128 -407
1599 -103 158 -187 260 -333 407 -153 153 -231 218 -409 337 -464 310 -1072
464 -1626 411z m410 -319 c544 -51 1014 -269 1396 -650 682 -680 851 -1702
424 -2565 -211 -428 -541 -771 -947 -985 l-97 -51 -45 143 c-25 79 -113 358
-195 621 l-149 479 92 91 c170 169 257 342 287 572 24 183 -8 363 -96 540
-142 285 -400 473 -714 520 -120 19 -162 19 -282 0 -236 -35 -446 -154 -599
-338 -76 -91 -163 -263 -190 -377 -83 -345 24 -697 286 -938 l73 -68 -150
-479 c-82 -264 -170 -544 -195 -623 l-45 -143 -97 51 c-406 214 -736 557 -947
985 -395 799 -281 1740 294 2427 460 549 1192 853 1896 788z"/>
</g>
</svg>
